<svg xmlns="http://www.w3.org/2000/svg" viewBox="0 0 64 64">
  <defs>
    <linearGradient id="g" x1="10" y1="8" x2="54" y2="56" gradientUnits="userSpaceOnUse">
      <stop stop-color="#7567ff"/>
      <stop offset="1" stop-color="#20d49b"/>
    </linearGradient>
  </defs>
  <rect width="64" height="64" rx="16" fill="#06080b"/>
  <rect x="7" y="7" width="50" height="50" rx="14" fill="url(#g)"/>
  <path fill="#fff" d="M33.5 50c-5.2 0-9.7-1.4-13.5-4.2l3.8-6.3c3.1 2.1 6.4 3.2 9.9 3.2 3.2 0 4.8-.9 4.8-2.8 0-1-.6-1.8-1.9-2.4-1.2-.6-3.4-1.3-6.5-2.1-3.8-1-6.5-2.3-8.1-3.9-1.6-1.6-2.4-3.7-2.4-6.4 0-3.5 1.3-6.2 4-8.2 2.7-2 6.2-3 10.4-3 4.7 0 8.8 1.2 12.3 3.6l-3.5 6.4c-2.8-1.7-5.8-2.6-9-2.6-3 0-4.5.9-4.5 2.6 0 .9.5 1.6 1.6 2.1 1.1.5 3.2 1.2 6.4 2 4 1 6.8 2.4 8.5 4.1 1.7 1.7 2.5 4 2.5 6.9 0 3.6-1.3 6.3-4 8.2-2.7 1.9-6.3 2.8-10.8 2.8Z"/>
</svg>
